<?xml version="1.0" standalone="no"?><!DOCTYPE svg PUBLIC "-//W3C//DTD SVG 1.1//EN" "http://www.w3.org/Graphics/SVG/1.1/DTD/svg11.dtd"><svg t="1652150082474" class="icon" viewBox="0 0 1263 1024" version="1.1" xmlns="http://www.w3.org/2000/svg" p-id="1305" xmlns:xlink="http://www.w3.org/1999/xlink" width="246.6796875" height="200"><defs><style type="text/css">@font-face { font-family: feedback-iconfont; src: url("//at.alicdn.com/t/font_1031158_u69w8yhxdu.woff2?t=1630033759944") format("woff2"), url("//at.alicdn.com/t/font_1031158_u69w8yhxdu.woff?t=1630033759944") format("woff"), url("//at.alicdn.com/t/font_1031158_u69w8yhxdu.ttf?t=1630033759944") format("truetype"); }
</style></defs><path d="M1132.93617 397.769532a21.787234 21.787234 0 0 1 43.574468 0V849.702128a65.361702 65.361702 0 0 1-65.361702 65.361702H152.510638a65.361702 65.361702 0 0 1-65.361702-65.361702V397.769532a21.787234 21.787234 0 0 1 43.574468 0V849.702128a21.787234 21.787234 0 0 0 21.787234 21.787234h958.638298a21.787234 21.787234 0 0 0 21.787234-21.787234V397.769532zM129.960851 152.510638H196.085106a21.787234 21.787234 0 0 1 0 43.574468H65.361702a21.787234 21.787234 0 0 0-21.787234 21.787234v87.148937a65.361702 65.361702 0 0 0 128.675404 16.340425 21.787234 21.787234 0 0 1 21.090043-16.340425h5.490383a21.787234 21.787234 0 0 1 21.090042 16.340425 65.405277 65.405277 0 0 0 126.627405 0 21.787234 21.787234 0 0 1 21.090042-16.340425h5.490383a21.787234 21.787234 0 0 1 21.090043 16.340425 65.405277 65.405277 0 0 0 126.627404 0 21.787234 21.787234 0 0 1 21.090043-16.340425h5.490383a21.787234 21.787234 0 0 1 21.090042 16.340425 65.405277 65.405277 0 0 0 126.627404 0 21.787234 21.787234 0 0 1 21.090043-16.340425h5.490383a21.787234 21.787234 0 0 1 21.090042 16.340425 65.405277 65.405277 0 0 0 126.627405 0 21.787234 21.787234 0 0 1 21.090042-16.340425h5.490383a21.787234 21.787234 0 0 1 21.090043 16.340425 65.405277 65.405277 0 0 0 126.627404 0 21.787234 21.787234 0 0 1 21.090043-16.340425h5.490383a21.787234 21.787234 0 0 1 21.090042 16.340425A65.405277 65.405277 0 0 0 1220.085106 305.021277v-87.148937a21.787234 21.787234 0 0 0-21.787234-21.787234h-130.723404a21.787234 21.787234 0 0 1 0-43.574468h66.124255A21.809021 21.809021 0 0 1 1132.93617 146.737021V65.361702a21.787234 21.787234 0 0 0-21.787234-21.787234H152.510638a21.787234 21.787234 0 0 0-21.787234 21.787234v81.375319c0 2.004426-0.261447 3.921702-0.762553 5.773617z m-42.049362 0A21.809021 21.809021 0 0 1 87.148936 146.737021V65.361702a65.361702 65.361702 0 0 1 65.361702-65.361702h958.638298a65.361702 65.361702 0 0 1 65.361702 65.361702v81.375319c0 2.004426-0.261447 3.921702-0.762553 5.773617H1198.297872a65.361702 65.361702 0 0 1 65.361702 65.361702v87.148937a108.93617 108.93617 0 0 1-196.085106 65.405276 108.93617 108.93617 0 0 1-174.297872 0 108.93617 108.93617 0 0 1-174.297873 0 108.93617 108.93617 0 0 1-174.297872 0 108.93617 108.93617 0 0 1-174.297872 0 108.93617 108.93617 0 0 1-174.297873 0A108.93617 108.93617 0 0 1 0 305.021277v-87.148937a65.361702 65.361702 0 0 1 65.361702-65.361702h22.549787zM305.021277 871.489362a21.787234 21.787234 0 0 1-43.574468 0V544.680851a65.361702 65.361702 0 0 1 65.361702-65.361702h196.085106a65.361702 65.361702 0 0 1 65.361702 65.361702v326.808511a21.787234 21.787234 0 0 1-43.574468 0V544.680851a21.787234 21.787234 0 0 0-21.787234-21.787234h-196.085106a21.787234 21.787234 0 0 0-21.787234 21.787234v326.808511z m457.531914-348.595745v123.054298a21.787234 21.787234 0 0 0 21.787235 21.787234h152.510638a21.787234 21.787234 0 0 0 21.787234-21.787234V522.893617a21.787234 21.787234 0 0 1 43.574468 0v123.054298a65.361702 65.361702 0 0 1-65.361702 65.361702h-152.510638a65.361702 65.361702 0 0 1-65.361703-65.361702V522.893617a21.787234 21.787234 0 0 1 43.574468 0zM294.12766 196.085106a21.787234 21.787234 0 0 1 0-43.574468h21.787234a21.787234 21.787234 0 0 1 0 43.574468h-21.787234z m108.93617 0a21.787234 21.787234 0 0 1 0-43.574468h21.787234a21.787234 21.787234 0 0 1 0 43.574468h-21.787234z m108.93617 0a21.787234 21.787234 0 0 1 0-43.574468h21.787234a21.787234 21.787234 0 0 1 0 43.574468h-21.787234z m108.93617 0a21.787234 21.787234 0 0 1 0-43.574468h21.787234a21.787234 21.787234 0 0 1 0 43.574468h-21.787234z m108.93617 0a21.787234 21.787234 0 0 1 0-43.574468h21.787234a21.787234 21.787234 0 0 1 0 43.574468h-21.787234z m108.936171 0a21.787234 21.787234 0 0 1 0-43.574468h21.787234a21.787234 21.787234 0 0 1 0 43.574468h-21.787234z m108.93617 0a21.787234 21.787234 0 0 1 0-43.574468h21.787234a21.787234 21.787234 0 0 1 0 43.574468h-21.787234zM108.93617 1024a21.787234 21.787234 0 0 1 0-43.574468h1045.787234a21.787234 21.787234 0 0 1 0 43.574468H108.93617z" fill="#2c2c2c" p-id="1306"></path></svg>