<?xml version="1.0" standalone="no"?><!DOCTYPE svg PUBLIC "-//W3C//DTD SVG 1.1//EN" "http://www.w3.org/Graphics/SVG/1.1/DTD/svg11.dtd"><svg t="1653982696424" class="icon" viewBox="0 0 1024 1024" version="1.1" xmlns="http://www.w3.org/2000/svg" p-id="1277" xmlns:xlink="http://www.w3.org/1999/xlink" width="200" height="200"><defs><style type="text/css">@font-face { font-family: feedback-iconfont; src: url("//at.alicdn.com/t/font_1031158_u69w8yhxdu.woff2?t=1630033759944") format("woff2"), url("//at.alicdn.com/t/font_1031158_u69w8yhxdu.woff?t=1630033759944") format("woff"), url("//at.alicdn.com/t/font_1031158_u69w8yhxdu.ttf?t=1630033759944") format("truetype"); }
</style></defs><path d="M426.097778 477.297778H190.008889c-26.168889 0-47.217778-21.048889-47.217778-47.217778V193.991111c0-26.168889 21.048889-47.217778 47.217778-47.217778h236.088889c26.168889 0 47.217778 21.048889 47.217778 47.217778v236.088889c0 26.168889-21.048889 47.217778-47.217778 47.217778zM426.097778 877.226667H190.008889c-26.168889 0-47.217778-21.048889-47.217778-47.217778v-236.088889c0-26.168889 21.048889-47.217778 47.217778-47.217778h236.088889c26.168889 0 47.217778 21.048889 47.217778 47.217778v236.088889c0 26.168889-21.048889 47.217778-47.217778 47.217778zM833.991111 477.297778h-236.088889c-26.168889 0-47.217778-21.048889-47.217778-47.217778V193.991111c0-26.168889 21.048889-47.217778 47.217778-47.217778h236.088889c26.168889 0 47.217778 21.048889 47.217778 47.217778v236.088889c0 26.168889-21.048889 47.217778-47.217778 47.217778zM824.32 603.591111v216.746667h-216.746667v-216.746667h216.746667m9.671111-56.888889h-236.088889c-26.168889 0-47.217778 21.048889-47.217778 47.217778v236.088889c0 26.168889 21.048889 47.217778 47.217778 47.217778h236.088889c26.168889 0 47.217778-21.048889 47.217778-47.217778v-236.088889c0-26.168889-21.048889-47.217778-47.217778-47.217778z" p-id="1278"></path></svg>